<mxfile host="app.diagrams.net" modified="2024-01-03T15:00:01.320Z" agent="Mozilla/5.0 (Windows NT 10.0; Win64; x64) AppleWebKit/537.36 (KHTML, like Gecko) Chrome/120.0.0.0 Safari/537.36 Edg/120.0.0.0" etag="iPvFIJYZqc3HKv_B6xl3" version="22.1.16" type="github">
  <diagram name="Page-1" id="13fyLAyZ8bjb-YuEaPAz">
    <mxGraphModel dx="1388" dy="664" grid="0" gridSize="10" guides="1" tooltips="1" connect="1" arrows="1" fold="1" page="1" pageScale="1" pageWidth="827" pageHeight="1169" background="#000000" math="0" shadow="0">
      <root>
        <mxCell id="0" />
        <mxCell id="1" parent="0" />
        <mxCell id="66cGgXsfrrXJ0McGxp_d-17" style="edgeStyle=orthogonalEdgeStyle;rounded=0;orthogonalLoop=1;jettySize=auto;html=1;entryX=0;entryY=0.5;entryDx=0;entryDy=0;strokeColor=#FFFFFF;" edge="1" parent="1" source="66cGgXsfrrXJ0McGxp_d-1" target="66cGgXsfrrXJ0McGxp_d-4">
          <mxGeometry relative="1" as="geometry" />
        </mxCell>
        <mxCell id="66cGgXsfrrXJ0McGxp_d-18" style="edgeStyle=orthogonalEdgeStyle;rounded=0;orthogonalLoop=1;jettySize=auto;html=1;entryX=0;entryY=0.5;entryDx=0;entryDy=0;strokeColor=#FFFFFF;" edge="1" parent="1" source="66cGgXsfrrXJ0McGxp_d-1" target="66cGgXsfrrXJ0McGxp_d-3">
          <mxGeometry relative="1" as="geometry" />
        </mxCell>
        <mxCell id="66cGgXsfrrXJ0McGxp_d-19" style="edgeStyle=orthogonalEdgeStyle;rounded=0;orthogonalLoop=1;jettySize=auto;html=1;entryX=0;entryY=0.5;entryDx=0;entryDy=0;strokeColor=#FFFFFF;" edge="1" parent="1" source="66cGgXsfrrXJ0McGxp_d-1" target="66cGgXsfrrXJ0McGxp_d-2">
          <mxGeometry relative="1" as="geometry" />
        </mxCell>
        <mxCell id="66cGgXsfrrXJ0McGxp_d-1" value="Deneye Bağlı Geleneksel Yöntemler" style="rounded=1;whiteSpace=wrap;html=1;fillColor=#647687;strokeColor=#314354;fontColor=#ffffff;" vertex="1" parent="1">
          <mxGeometry x="113" y="146" width="120" height="60" as="geometry" />
        </mxCell>
        <mxCell id="66cGgXsfrrXJ0McGxp_d-2" value="Coulomb Sayma Yöntemi" style="rounded=1;whiteSpace=wrap;html=1;fillColor=#647687;strokeColor=#314354;fontColor=#ffffff;" vertex="1" parent="1">
          <mxGeometry x="273" y="146" width="120" height="60" as="geometry" />
        </mxCell>
        <mxCell id="66cGgXsfrrXJ0McGxp_d-3" value="Gerilim Tabanlı SoC Belirleme" style="rounded=1;whiteSpace=wrap;html=1;fillColor=#647687;strokeColor=#314354;fontColor=#ffffff;" vertex="1" parent="1">
          <mxGeometry x="273" y="226" width="120" height="60" as="geometry" />
        </mxCell>
        <mxCell id="66cGgXsfrrXJ0McGxp_d-4" value="Açık Devre Gerilimi" style="rounded=1;whiteSpace=wrap;html=1;fillColor=#647687;strokeColor=#314354;fontColor=#ffffff;" vertex="1" parent="1">
          <mxGeometry x="273" y="66" width="120" height="60" as="geometry" />
        </mxCell>
        <mxCell id="66cGgXsfrrXJ0McGxp_d-5" value="Kalman Süzgeci" style="rounded=1;whiteSpace=wrap;html=1;fillColor=#647687;strokeColor=#314354;fontColor=#ffffff;" vertex="1" parent="1">
          <mxGeometry x="273" y="306" width="120" height="60" as="geometry" />
        </mxCell>
        <mxCell id="66cGgXsfrrXJ0McGxp_d-6" value="Genişletilmiş Kalman Süzgeci" style="rounded=1;whiteSpace=wrap;html=1;fillColor=#647687;strokeColor=#314354;fontColor=#ffffff;" vertex="1" parent="1">
          <mxGeometry x="273" y="386" width="120" height="60" as="geometry" />
        </mxCell>
        <mxCell id="66cGgXsfrrXJ0McGxp_d-7" value="Kokusuz Kalman Süzgeci" style="rounded=1;whiteSpace=wrap;html=1;fillColor=#647687;strokeColor=#314354;fontColor=#ffffff;" vertex="1" parent="1">
          <mxGeometry x="273" y="466" width="120" height="60" as="geometry" />
        </mxCell>
        <mxCell id="66cGgXsfrrXJ0McGxp_d-14" style="edgeStyle=orthogonalEdgeStyle;rounded=0;orthogonalLoop=1;jettySize=auto;html=1;entryX=0;entryY=0.5;entryDx=0;entryDy=0;strokeColor=#FFFFFF;" edge="1" parent="1" source="66cGgXsfrrXJ0McGxp_d-8" target="66cGgXsfrrXJ0McGxp_d-5">
          <mxGeometry relative="1" as="geometry" />
        </mxCell>
        <mxCell id="66cGgXsfrrXJ0McGxp_d-15" style="edgeStyle=orthogonalEdgeStyle;rounded=0;orthogonalLoop=1;jettySize=auto;html=1;entryX=0;entryY=0.5;entryDx=0;entryDy=0;strokeColor=#FFFFFF;" edge="1" parent="1" source="66cGgXsfrrXJ0McGxp_d-8" target="66cGgXsfrrXJ0McGxp_d-7">
          <mxGeometry relative="1" as="geometry" />
        </mxCell>
        <mxCell id="66cGgXsfrrXJ0McGxp_d-16" style="edgeStyle=orthogonalEdgeStyle;rounded=0;orthogonalLoop=1;jettySize=auto;html=1;entryX=0;entryY=0.5;entryDx=0;entryDy=0;strokeColor=#FFFFFF;" edge="1" parent="1" source="66cGgXsfrrXJ0McGxp_d-8" target="66cGgXsfrrXJ0McGxp_d-6">
          <mxGeometry relative="1" as="geometry" />
        </mxCell>
        <mxCell id="66cGgXsfrrXJ0McGxp_d-8" value="Durum Uzayı Modeline Dayalı Kestirim Alagoritmaları" style="rounded=1;whiteSpace=wrap;html=1;fillColor=#647687;strokeColor=#314354;fontColor=#ffffff;" vertex="1" parent="1">
          <mxGeometry x="113" y="386" width="120" height="60" as="geometry" />
        </mxCell>
        <mxCell id="66cGgXsfrrXJ0McGxp_d-9" value="Yapay Sinir Ağları" style="rounded=1;whiteSpace=wrap;html=1;fillColor=#647687;strokeColor=#314354;fontColor=#ffffff;" vertex="1" parent="1">
          <mxGeometry x="593" y="146" width="120" height="60" as="geometry" />
        </mxCell>
        <mxCell id="66cGgXsfrrXJ0McGxp_d-10" value="Bulanık Mantık&amp;nbsp;" style="rounded=1;whiteSpace=wrap;html=1;fillColor=#647687;strokeColor=#314354;fontColor=#ffffff;" vertex="1" parent="1">
          <mxGeometry x="593" y="226" width="120" height="60" as="geometry" />
        </mxCell>
        <mxCell id="66cGgXsfrrXJ0McGxp_d-11" value="Destek Vektör Makinaları" style="rounded=1;whiteSpace=wrap;html=1;fillColor=#647687;strokeColor=#314354;fontColor=#ffffff;" vertex="1" parent="1">
          <mxGeometry x="593" y="306" width="120" height="60" as="geometry" />
        </mxCell>
        <mxCell id="66cGgXsfrrXJ0McGxp_d-20" style="edgeStyle=orthogonalEdgeStyle;rounded=0;orthogonalLoop=1;jettySize=auto;html=1;entryX=0;entryY=0.5;entryDx=0;entryDy=0;strokeColor=#FFFFFF;" edge="1" parent="1" source="66cGgXsfrrXJ0McGxp_d-12" target="66cGgXsfrrXJ0McGxp_d-9">
          <mxGeometry relative="1" as="geometry" />
        </mxCell>
        <mxCell id="66cGgXsfrrXJ0McGxp_d-21" style="edgeStyle=orthogonalEdgeStyle;rounded=0;orthogonalLoop=1;jettySize=auto;html=1;entryX=0;entryY=0.5;entryDx=0;entryDy=0;strokeColor=#FFFFFF;" edge="1" parent="1" source="66cGgXsfrrXJ0McGxp_d-12" target="66cGgXsfrrXJ0McGxp_d-13">
          <mxGeometry relative="1" as="geometry" />
        </mxCell>
        <mxCell id="66cGgXsfrrXJ0McGxp_d-22" style="edgeStyle=orthogonalEdgeStyle;rounded=0;orthogonalLoop=1;jettySize=auto;html=1;entryX=0;entryY=0.5;entryDx=0;entryDy=0;strokeColor=#FFFFFF;" edge="1" parent="1" source="66cGgXsfrrXJ0McGxp_d-12" target="66cGgXsfrrXJ0McGxp_d-11">
          <mxGeometry relative="1" as="geometry" />
        </mxCell>
        <mxCell id="66cGgXsfrrXJ0McGxp_d-23" style="edgeStyle=orthogonalEdgeStyle;rounded=0;orthogonalLoop=1;jettySize=auto;html=1;strokeColor=#FFFFFF;" edge="1" parent="1" source="66cGgXsfrrXJ0McGxp_d-12" target="66cGgXsfrrXJ0McGxp_d-10">
          <mxGeometry relative="1" as="geometry" />
        </mxCell>
        <mxCell id="66cGgXsfrrXJ0McGxp_d-12" value="Zeki Algoritmalar" style="rounded=1;whiteSpace=wrap;html=1;fillColor=#647687;strokeColor=#314354;fontColor=#ffffff;" vertex="1" parent="1">
          <mxGeometry x="433" y="266" width="120" height="60" as="geometry" />
        </mxCell>
        <mxCell id="66cGgXsfrrXJ0McGxp_d-13" value="Derin Öğrenme" style="rounded=1;whiteSpace=wrap;html=1;fillColor=#647687;strokeColor=#314354;fontColor=#ffffff;" vertex="1" parent="1">
          <mxGeometry x="593" y="386" width="120" height="60" as="geometry" />
        </mxCell>
      </root>
    </mxGraphModel>
  </diagram>
</mxfile>
